# xmcd CD database file
#
# Track frame offsets:
#	150
#	25908
#	44542
#	62623
#	75251
#	88763
#	104576
#	129460
#	147193
#	167002
#	190683
#	208363
#	227769
#
# Disc length: 3293 seconds
#
# Revision: 2
# Processed by: cddbd v1.5.2PL0 Copyright (c) Steve Scherf et al.
# Submitted via: CDex 1.70beta2
#
DISCID=af0cdb0d
DTITLE=Def Tech - UP
DYEAR=2011
DGENRE=Hip-Hop
TTITLE0=The Day Dream
TTITLE1=Golden Age
TTITLE2=My Baby Love
TTITLE3=Muteki
TTITLE4=Spice
TTITLE5=take it HIGHER!!
TTITLE6=Day Off
TTITLE7=Kokkyo
TTITLE8=All That's In The Universe
TTITLE9=Freedom
TTITLE10=Naturally Blue
TTITLE11=friends for always
TTITLE12=Get Yo ASS UP!!!
EXTD=YEAR: 2011
EXTT0=
EXTT1=
EXTT2=
EXTT3=
EXTT4=
EXTT5=
EXTT6=
EXTT7=
EXTT8=
EXTT9=
EXTT10=
EXTT11=
EXTT12=
PLAYORDER=
